# xmcd CD database file
#
# Track frame offsets:
#	150
#	20181
#	36264
#	56084
#	74219
#	95428
#	116693
#	134561
#	159314
#	182934
#	205416
#	220451
#	233605
#	247389
#	263327
#	277330
#
# Disc length: 3976 seconds
#
# Revision: 2
# Processed by: cddbd v1.5.2PL0 Copyright (c) Steve Scherf et al.
# Submitted via: CDex 1.70beta2
#
DISCID=080f8610
DTITLE=湘南乃風 - 湘南乃風 ～Live Set Best～裏BEST“銀”盤 (Disc-1)
DYEAR=1900
DGENRE=Blues
TTITLE0=Wild Speed
TTITLE1=Joker
TTITLE2=Rockin' Wild
TTITLE3=STILL WILD
TTITLE4=Bombo Claat
TTITLE5=風
TTITLE6=WAVE
TTITLE7=rainy
TTITLE8=CLASSIC
TTITLE9=JUMP AROUND
TTITLE10=OH YEAH
TTITLE11=SHOW TIME
TTITLE12=BREAK DOWN
TTITLE13=Riders High
TTITLE14=NO WAY ～悪漢無頼～
TTITLE15=Real Riders
EXTD=
EXTT0=
EXTT1=
EXTT2=
EXTT3=
EXTT4=
EXTT5=
EXTT6=
EXTT7=
EXTT8=
EXTT9=
EXTT10=
EXTT11=
EXTT12=
EXTT13=
EXTT14=
EXTT15=
PLAYORDER=
